# xmcd
#
# Track frame offsets:
#	150
#	8706
#	19569
#	33812
#	43716
#	57559
#	72195
#	82866
#	97723
#	110221
#	118793
#	142952
#	155866
#	172186
#	183025
#	203742
#	217550
#	230799
#
# Disc length: 3363 seconds
#
# Revision: 2
# Processed by: cddbd v1.5.1PL2 Copyright (c) Steve Scherf et al.
# Submitted via: audiograbber 1.83.01
#
DISCID=e90d2112
DTITLE=Collection - Modernoi Rythmoi 2 [CD 7)
DYEAR=1999
DGENRE=Oldies
TTITLE0=Giorgos Romanos - To Roloi
TTITLE1=The Charms - Exo apo ton Kosmo (Keep searchin)
TTITLE2=The Sounds - Ennea Koritsia
TTITLE3=Teis Hrysos - Mylos i Kardia mou (Mulino a vento)
TTITLE4=The Idols - S ' Ekeino to Dromaki (Alla fine de la strada-Love me tonig
TTITLE4=ht)
TTITLE5=Maro Dimitriou - Kantsonissima (Quelly Belly come noi)
TTITLE6=Marina - O Kouklos
TTITLE7=Peloma Boqiou - An Ixera
TTITLE8=The M.G.C. - Miss Marple's Theme
TTITLE9=Vangelis Papathanasiou - The Clock
TTITLE10=Exadahtylos - O Aneprokopos
TTITLE11=Nostradamos - Dos' mou to Heri sou
TTITLE12=Despoina Glezou - Aposmitika
TTITLE13=Thanasis Gaifilias - Otostop
TTITLE14=Zoitsa Kouroukli - Hamena Oneira (There were the days)
TTITLE15=Lakis Tzordanelli - Agorazo Palia
TTITLE16=The Daltons - Giezael (Jesahel)
TTITLE17=Jeronymo - Rough Mix
EXTD=
EXTT0=
EXTT1=
EXTT2=
EXTT3=
EXTT4=
EXTT5=
EXTT6=
EXTT7=
EXTT8=
EXTT9=
EXTT10=
EXTT11=
EXTT12=
EXTT13=
EXTT14=
EXTT15=
EXTT16=
EXTT17=
PLAYORDER=
